<svg aria-hidden="true" style="position: absolute; width: 0; height: 0; overflow: hidden;" version="1.1" xmlns="http://www.w3.org/2000/svg" xmlns:xlink="http://www.w3.org/1999/xlink">
<defs>
<symbol id="icon-rectangular-speech-bubble" viewBox="0 0 32 32">
<path d="M0 0.158v22.233h6.178l-0.004 9.451 9.472-9.451h16.354v-22.231h-32z"></path>
</symbol>
<symbol id="icon-arrow-right" viewBox="0 0 68 32">
<path d="M65.416 17.416c0.363-0.362 0.588-0.863 0.588-1.416s-0.225-1.054-0.588-1.416l-12.728-12.728c-0.362-0.362-0.863-0.587-1.416-0.587-1.106 0-2.003 0.897-2.003 2.003 0 0.553 0.224 1.054 0.587 1.416l11.316 11.312-11.316 11.312c-0.362 0.362-0.587 0.863-0.587 1.416 0 1.106 0.897 2.003 2.003 2.003 0.553 0 1.054-0.224 1.416-0.587v0l12.728-12.728zM0 18h64v-4h-64v4z"></path>
</symbol>
<symbol id="icon-facebook-icon" viewBox="7 0 15 30">
<path fill="#e0e0e0" style="fill: var(--color2, #e0e0e0)" d="M24 0.006l-4.152-0.006c-4.662 0-7.675 3.091-7.675 7.876v3.63h-4.173c-0.36 0.001-0.652 0.293-0.652 0.653 0 0 0 0 0 0v0 5.261c0 0.361 0.292 0.653 0.653 0.653h4.173v13.275c0 0.361 0.291 0.653 0.653 0.653h5.443c0.361 0 0.653-0.292 0.653-0.653v0-13.274h4.877c0.361 0 0.653-0.292 0.653-0.653v0l0.003-5.261c0-0.361-0.292-0.653-0.653-0.653v0h-4.879v-3.080c0-1.48 0.352-2.231 2.278-2.231h2.797c0.361 0 0.653-0.292 0.653-0.653v0-4.886c0-0.361-0.292-0.653-0.653-0.653v0z"></path>
</symbol>
<symbol id="icon-globe" viewBox="0 0 34 32">
<path d="M29.438 26.366c2.639-2.637 4.246-6.105 4.246-9.896 0-3.948-1.74-7.539-4.573-10.211 0-0.003-0.005-0.005-0.007-0.008-2.949-2.779-7.082-4.557-11.678-4.699l-0.332-0.007c-0.084-0.003-0.168-0.005-0.254-0.005-0.084 0-0.17 0.002-0.254 0.005l-0.327 0.005c-4.598 0.141-8.729 1.92-11.678 4.699l-0.008 0.007v0.002c-2.833 2.675-4.573 6.267-4.573 10.215 0 3.793 1.607 7.259 4.246 9.896 0.003 0.005 0.003 0.010 0.008 0.013 0.010 0.013 0.025 0.020 0.037 0.032 2.964 2.939 7.219 4.83 11.968 4.975l0.327 0.008c0.086 0.002 0.17 0.005 0.256 0.005l0.254-0.005 0.327-0.008c4.755-0.145 9.014-2.041 11.98-4.985 0.007-0.010 0.020-0.013 0.027-0.022 0.005-0.003 0.005-0.008 0.008-0.013zM1.177 16.985h6.969c0.067 2.181 0.547 4.301 1.403 6.289-1.651 0.531-3.23 1.24-4.711 2.127-2.176-2.296-3.53-5.221-3.663-8.418zM5.154 7.213c1.445 0.834 2.984 1.501 4.589 1.999-0.942 1.974-1.523 4.281-1.598 6.716l-0.001 0.026h-6.969c0.14-3.35 1.619-6.4 3.98-8.741zM32.505 15.955h-6.969c-0.075-2.461-0.657-4.768-1.643-6.846l0.044 0.104c1.756-0.55 3.276-1.228 4.697-2.057l-0.107 0.058c2.361 2.341 3.84 5.391 3.98 8.741zM16.263 9.243c-1.766-0.044-3.455-0.282-5.075-0.694l0.157 0.034c1.176-2.141 2.838-4.074 4.918-5.683v6.343zM16.263 10.272v5.683h-6.954c0.078-2.347 0.641-4.544 1.592-6.519l-0.042 0.097c1.745 0.448 3.557 0.696 5.403 0.741zM17.425 10.272c1.94-0.044 3.797-0.312 5.573-0.778l-0.167 0.037c0.908 1.879 1.47 4.077 1.545 6.398l0.001 0.026h-6.952v-5.681zM17.425 9.243v-6.343c2.080 1.608 3.742 3.542 4.918 5.683-1.463 0.378-3.152 0.617-4.89 0.66l-0.028 0.001zM23.471 8.269c-1.206-2.184-2.737-4.033-4.551-5.554l-0.030-0.024c3.399 0.394 6.459 1.757 8.817 3.768-1.339 0.753-2.759 1.357-4.237 1.811zM10.216 8.269c-1.622-0.501-3.024-1.116-4.339-1.866l0.105 0.055c2.355-2.013 5.415-3.373 8.815-3.768-1.845 1.545-3.375 3.394-4.531 5.479l-0.050 0.099zM9.31 16.985h6.952v5.167c-2.013 0.045-3.94 0.332-5.778 0.832l0.168-0.039c-0.784-1.752-1.271-3.791-1.342-5.936l-0.001-0.026zM16.263 23.183v6.855c-2.227-1.721-3.971-3.813-5.159-6.134 1.535-0.416 3.306-0.677 5.131-0.722l0.028-0.001zM17.425 30.038v-6.855c1.765 0.042 3.495 0.286 5.159 0.719-1.187 2.323-2.932 4.414-5.159 6.136zM17.425 22.152v-5.169h6.952c-0.071 2.171-0.558 4.21-1.383 6.065l0.041-0.103c-1.671-0.462-3.597-0.748-5.583-0.793l-0.027-0zM25.539 16.984h6.971c-0.133 3.198-1.487 6.122-3.663 8.418-1.351-0.823-2.91-1.544-4.551-2.082l-0.16-0.045c0.857-1.987 1.337-4.108 1.403-6.291zM5.629 26.173c1.374-0.808 2.836-1.46 4.365-1.947 1.224 2.372 2.836 4.373 4.774 5.998l0.030 0.024c-3.572-0.414-6.771-1.898-9.169-4.076zM18.887 30.248c1.968-1.65 3.579-3.651 4.753-5.916l0.050-0.107c1.529 0.487 2.991 1.137 4.365 1.947-2.4 2.179-5.597 3.661-9.169 4.076z"></path>
</symbol>
<symbol id="icon-header-logo" viewBox="0 0 64 32">
<path fill="#fff" style="fill: var(--color1, #fff)" d="M29.438 26.366c2.639-2.637 4.246-6.105 4.246-9.896 0-3.948-1.74-7.539-4.573-10.211 0-0.003-0.005-0.005-0.007-0.008-2.949-2.779-7.082-4.557-11.678-4.699l-0.332-0.007c-0.084-0.003-0.168-0.005-0.254-0.005-0.084 0-0.17 0.002-0.254 0.005l-0.327 0.005c-4.598 0.141-8.729 1.92-11.678 4.699l-0.008 0.007v0.002c-2.833 2.675-4.573 6.267-4.573 10.215 0 3.793 1.607 7.259 4.246 9.896 0.003 0.005 0.003 0.010 0.008 0.013 0.010 0.013 0.025 0.020 0.037 0.032 2.964 2.939 7.219 4.83 11.968 4.975l0.327 0.008c0.086 0.002 0.17 0.005 0.256 0.005l0.254-0.005 0.327-0.008c4.755-0.145 9.014-2.041 11.98-4.985 0.007-0.010 0.020-0.013 0.027-0.022 0.005-0.003 0.005-0.008 0.008-0.013zM1.177 16.985h6.969c0.067 2.181 0.547 4.301 1.403 6.289-1.651 0.531-3.23 1.24-4.711 2.127-2.176-2.296-3.53-5.221-3.663-8.418zM5.154 7.213c1.445 0.834 2.984 1.501 4.589 1.999-0.942 1.974-1.523 4.281-1.598 6.716l-0.001 0.026h-6.969c0.14-3.35 1.619-6.4 3.98-8.741zM32.505 15.955h-6.969c-0.075-2.461-0.657-4.768-1.643-6.846l0.044 0.104c1.756-0.55 3.276-1.228 4.697-2.057l-0.107 0.058c2.361 2.341 3.84 5.391 3.98 8.741zM16.263 9.243c-1.766-0.044-3.455-0.282-5.075-0.694l0.157 0.034c1.176-2.141 2.838-4.074 4.918-5.683v6.343zM16.263 10.272v5.683h-6.954c0.078-2.347 0.641-4.544 1.592-6.519l-0.042 0.097c1.745 0.448 3.557 0.696 5.403 0.741zM17.425 10.272c1.94-0.044 3.797-0.312 5.573-0.778l-0.167 0.037c0.908 1.879 1.47 4.077 1.545 6.398l0.001 0.026h-6.952v-5.681zM17.425 9.243v-6.343c2.080 1.608 3.742 3.542 4.918 5.683-1.463 0.378-3.152 0.617-4.89 0.66l-0.028 0.001zM23.471 8.269c-1.206-2.184-2.737-4.033-4.551-5.554l-0.030-0.024c3.399 0.394 6.459 1.757 8.817 3.768-1.339 0.753-2.759 1.357-4.237 1.811zM10.216 8.269c-1.622-0.501-3.024-1.116-4.339-1.866l0.105 0.055c2.355-2.013 5.415-3.373 8.815-3.768-1.845 1.545-3.375 3.394-4.531 5.479l-0.050 0.099zM9.31 16.985h6.952v5.167c-2.013 0.045-3.94 0.332-5.778 0.832l0.168-0.039c-0.784-1.752-1.271-3.791-1.342-5.936l-0.001-0.026zM16.263 23.183v6.855c-2.227-1.721-3.971-3.813-5.159-6.134 1.535-0.416 3.306-0.677 5.131-0.722l0.028-0.001zM17.425 30.038v-6.855c1.765 0.042 3.495 0.286 5.159 0.719-1.187 2.323-2.932 4.414-5.159 6.136zM17.425 22.152v-5.169h6.952c-0.071 2.171-0.558 4.21-1.383 6.065l0.041-0.103c-1.671-0.462-3.597-0.748-5.583-0.793l-0.027-0zM25.539 16.984h6.971c-0.133 3.198-1.487 6.122-3.663 8.418-1.351-0.823-2.91-1.544-4.551-2.082l-0.16-0.045c0.857-1.987 1.337-4.108 1.403-6.291zM5.629 26.173c1.374-0.808 2.836-1.46 4.365-1.947 1.224 2.372 2.836 4.373 4.774 5.998l0.030 0.024c-3.572-0.414-6.771-1.898-9.169-4.076zM18.887 30.248c1.968-1.65 3.579-3.651 4.753-5.916l0.050-0.107c1.529 0.487 2.991 1.137 4.365 1.947-2.4 2.179-5.597 3.661-9.169 4.076z"></path>
</symbol>
<symbol id="icon-instagram-icon" viewBox="0 0 32 32">
<path fill="#e0e0e0" style="fill: var(--color2, #e0e0e0)" d="M22.001 0h-12c-5.523 0-10.001 4.477-10.001 10.001v0 12c0.001 5.523 4.478 9.999 10.001 9.999h12c5.523-0.001 9.999-4.478 9.999-10.001v-11.999c0-5.523-4.477-10.001-10.001-10.001v0zM29 22.001c-0.005 3.863-3.136 6.994-6.999 6.999h-12c-3.864-0.004-6.997-3.135-7.002-6.999v-12c0.004-3.865 3.136-6.998 7.001-7.002h12c3.864 0.005 6.995 3.137 6.999 7.001v12z"></path>
<path fill="#e0e0e0" style="fill: var(--color2, #e0e0e0)" d="M16 8c-4.418 0-8 3.582-8 8s3.582 8 8 8v0c4.418 0 8-3.582 8-8s-3.582-8-8-8v0zM16 21c-2.759-0.004-4.995-2.24-5-4.999v-0c0.003-2.76 2.24-4.997 4.999-5h0c2.76 0.003 4.997 2.24 5 4.999v0c-0.004 2.759-2.24 4.995-4.999 5h-0zM24.6 8.466c0.589 0 1.066-0.477 1.066-1.066s-0.477-1.066-1.066-1.066v0c-0.589 0-1.066 0.477-1.066 1.066s0.477 1.066 1.066 1.066v0z"></path>
</symbol>
<symbol id="icon-search" viewBox="0 -0.5 4 5">
<path d="M4.241 3.731l-1.239-1.099c0.235-0.257 0.377-0.584 0.377-0.94 0-0.826-0.758-1.497-1.689-1.497s-1.689 0.672-1.689 1.497 0.758 1.497 1.689 1.497c0.402 0 0.771-0.125 1.061-0.334l1.239 1.099c0.017 0.014 0.039 0.023 0.063 0.023s0.046-0.009 0.063-0.023l-0 0 0.126-0.111c0.016-0.013 0.026-0.033 0.026-0.056s-0.010-0.042-0.026-0.056l-0-0zM1.689 2.874c-0.735 0-1.333-0.53-1.333-1.182s0.598-1.182 1.333-1.182c0.735 0 1.333 0.53 1.333 1.182s-0.598 1.182-1.333 1.182z"></path>
</symbol>
<symbol id="icon-vk-icon" viewBox="0 0 56 32">
<path fill="#e0e0e0" style="fill: var(--color2, #e0e0e0)" d="M56.022 28.9c-0.068-0.147-0.132-0.266-0.202-0.382l0.010 0.017c-0.977-1.754-2.844-3.904-5.6-6.455l-0.116-0.116h-0.031c-1.251-1.187-2.043-1.985-2.374-2.394-0.607-0.781-0.742-1.568-0.411-2.367 0.234-0.603 1.114-1.878 2.639-3.825 0.801-1.032 1.436-1.86 1.906-2.483 3.382-4.477 4.849-7.338 4.398-8.585l-0.174-0.291c-0.118-0.175-0.421-0.335-0.909-0.483-0.489-0.146-1.115-0.17-1.878-0.073l-8.444 0.059c-0.137-0.049-0.333-0.044-0.588 0.014l-0.381 0.088-0.146 0.073-0.118 0.088c-0.097 0.058-0.205 0.16-0.323 0.306-0.117 0.147-0.215 0.316-0.287 0.498l-0.005 0.014c-1.001 2.569-2.055 4.731-3.26 6.795l0.122-0.226c-0.785 1.324-1.444 2.349-2.131 3.352l0.137-0.212c-0.605 0.886-1.114 1.539-1.523 1.956-0.412 0.419-0.782 0.755-1.116 1.007-0.333 0.253-0.586 0.361-0.762 0.321-0.175-0.038-0.342-0.077-0.499-0.116-0.277-0.181-0.5-0.422-0.654-0.705l-0.005-0.010c-0.166-0.302-0.279-0.681-0.338-1.139-0.048-0.337-0.085-0.745-0.102-1.158l-0.001-0.024c-0.009-0.33-0.005-0.799 0.015-1.402 0.020-0.604 0.029-1.011 0.029-1.226 0-0.74 0.014-1.544 0.044-2.409l0.073-2.060c0.020-0.506 0.029-1.041 0.029-1.605 0-0.566-0.035-1.007-0.102-1.33-0.077-0.355-0.182-0.667-0.319-0.963l0.012 0.028c-0.13-0.293-0.337-0.531-0.595-0.696l-0.006-0.004c-0.283-0.172-0.61-0.308-0.959-0.39l-0.023-0.005c-1.037-0.234-2.355-0.36-3.959-0.38-3.635-0.038-5.972 0.196-7.008 0.701-0.41 0.214-0.782 0.506-1.114 0.876-0.353 0.429-0.402 0.663-0.147 0.701 1.172 0.174 2.003 0.593 2.492 1.254l0.175 0.351c0.137 0.253 0.274 0.701 0.411 1.344s0.225 1.353 0.264 2.131c0.097 1.421 0.097 2.638 0 3.651-0.088 0.989-0.187 1.8-0.307 2.604l0.029-0.238c-0.090 0.563-0.22 1.021-0.397 1.372-0.175 0.351-0.293 0.564-0.352 0.643-0.039 0.059-0.087 0.107-0.144 0.145l-0.002 0.001c-0.234 0.092-0.505 0.146-0.789 0.146-0.001 0-0.002 0-0.004 0h0c-0.274 0-0.605-0.136-0.997-0.41-0.457-0.334-0.856-0.704-1.208-1.114l-0.008-0.009c-0.421-0.476-0.895-1.143-1.422-2.001-0.529-0.856-1.075-1.869-1.642-3.036l-0.47-0.847c-0.224-0.384-0.625-1.165-1.012-1.953l-0.19-0.428c-0.367-0.709-0.82-1.704-1.238-2.716l-0.111-0.304c-0.138-0.385-0.382-0.704-0.698-0.93l-0.006-0.004-0.146-0.090c-0.135-0.097-0.29-0.18-0.456-0.242l-0.014-0.005c-0.194-0.081-0.42-0.147-0.655-0.187l-0.018-0.003-8.036 0.058c-0.82 0-1.377 0.186-1.67 0.556l-0.118 0.175c-0.059 0.097-0.088 0.251-0.088 0.467 0 0.214 0.059 0.476 0.177 0.788 1.404 3.293 2.685 5.903 4.077 8.443l-0.251-0.5c1.379 2.55 2.575 4.605 3.592 6.161 1.14 1.748 2.164 3.185 3.236 4.582l-0.127-0.172c1.055 1.382 1.754 2.268 2.095 2.657 0.343 0.39 0.612 0.682 0.806 0.877l0.735 0.7c0.468 0.467 1.157 1.028 2.066 1.679 0.909 0.653 1.916 1.295 3.021 1.928s2.39 1.148 3.857 1.548c1.466 0.399 2.893 0.559 4.282 0.483h3.372c0.684-0.059 1.203-0.273 1.554-0.643l0.116-0.146c0.079-0.116 0.154-0.297 0.22-0.54 0.069-0.243 0.102-0.512 0.102-0.804-0.004-0.099-0.006-0.215-0.006-0.331 0-0.683 0.072-1.35 0.208-1.993l-0.011 0.063c0.146-0.672 0.312-1.178 0.499-1.519 0.186-0.34 0.397-0.627 0.63-0.86 0.234-0.234 0.402-0.375 0.499-0.424s0.175-0.082 0.234-0.102c0.47-0.156 1.021-0.005 1.658 0.453 0.635 0.457 1.231 1.023 1.788 1.693 0.558 0.672 1.228 1.426 2.010 2.263 0.781 0.837 1.466 1.459 2.052 1.869l0.586 0.351c0.392 0.234 0.9 0.448 1.526 0.643 0.625 0.195 1.171 0.243 1.641 0.146l7.507-0.116c0.742 0 1.32-0.123 1.729-0.365 0.411-0.243 0.655-0.512 0.733-0.804 0.040-0.159 0.063-0.342 0.063-0.531 0-0.164-0.017-0.324-0.051-0.477l0.003 0.015c-0.070-0.369-0.138-0.627-0.206-0.773z"></path>
</symbol>
<symbol id="icon-ytube-icon" viewBox="0 0 45 32">
<path fill="#e0e0e0" style="fill: var(--color2, #e0e0e0)" d="M35.494 0h-26.189c-5.142 0-9.306 4.205-9.306 9.391v13.217c0 5.187 4.165 9.391 9.306 9.391h26.189c5.139 0 9.306-4.205 9.306-9.391v-13.217c0-5.187-4.166-9.391-9.306-9.391zM29.203 16.643l-12.25 5.898c-0.062 0.030-0.135 0.048-0.212 0.048-0.271 0-0.492-0.22-0.492-0.492 0-0.002 0-0.003 0-0.005v0-12.164c0-0.371 0.387-0.611 0.713-0.443l12.251 6.266c0.161 0.085 0.269 0.251 0.269 0.443 0 0.196-0.112 0.365-0.276 0.447l-0.003 0.001z"></path>
</symbol>
</defs>
</svg>
